<?xml version="1.0" encoding="UTF-8" standalone="no"?>
<!DOCTYPE svg PUBLIC "-//W3C//DTD SVG 1.1//EN"
 "http://www.w3.org/Graphics/SVG/1.1/DTD/svg11.dtd">
<!-- Generated by graphviz version 12.0.0 (20240704.0754)
 -->
<!-- Title: G Pages: 1 -->
<svg width="612pt" height="790pt"
 viewBox="0.00 0.00 612.00 789.68" xmlns="http://www.w3.org/2000/svg" xmlns:xlink="http://www.w3.org/1999/xlink">
<g id="graph0" class="graph" transform="scale(0.987097 0.987097) rotate(0) translate(4 796)">
<title>G</title>
<polygon fill="white" stroke="none" points="-4,4 -4,-796 616,-796 616,4 -4,4"/>
<!-- index.php -->
<g id="node1" class="node">
<title>index.php</title>
<ellipse fill="none" stroke="black" cx="42" cy="-415.49" rx="39.69" ry="18"/>
<text text-anchor="middle" x="42" y="-411.99" font-family="Times,serif" font-size="10.00">index.php</text>
</g>
<!-- head.php -->
<g id="node2" class="node">
<title>head.php</title>
<ellipse fill="none" stroke="black" cx="216" cy="-415.49" rx="37.88" ry="18"/>
<text text-anchor="middle" x="216" y="-411.99" font-family="Times,serif" font-size="10.00">head.php</text>
</g>
<!-- index.php&#45;&gt;head.php -->
<g id="edge1" class="edge">
<title>index.php&#45;&gt;head.php</title>
<path fill="none" stroke="black" d="M82.03,-415.49C107.07,-415.49 139.77,-415.49 166.48,-415.49"/>
<polygon fill="black" stroke="black" points="166.38,-418.99 176.38,-415.49 166.38,-411.99 166.38,-418.99"/>
</g>
<!-- menu.php -->
<g id="node3" class="node">
<title>menu.php</title>
<ellipse fill="none" stroke="black" cx="216" cy="-360.49" rx="40.29" ry="18"/>
<text text-anchor="middle" x="216" y="-356.99" font-family="Times,serif" font-size="10.00">menu.php</text>
</g>
<!-- index.php&#45;&gt;menu.php -->
<g id="edge2" class="edge">
<title>index.php&#45;&gt;menu.php</title>
<path fill="none" stroke="black" d="M74.58,-405C89.85,-399.95 108.46,-393.85 125.2,-388.49 140.19,-383.69 156.63,-378.54 171.3,-373.97"/>
<polygon fill="black" stroke="black" points="172.16,-377.37 180.67,-371.06 170.09,-370.69 172.16,-377.37"/>
</g>
<!-- menu_logic.php -->
<g id="node4" class="node">
<title>menu_logic.php</title>
<ellipse fill="none" stroke="black" cx="216" cy="-470.49" rx="57.73" ry="18"/>
<text text-anchor="middle" x="216" y="-466.99" font-family="Times,serif" font-size="10.00">menu_logic.php</text>
</g>
<!-- index.php&#45;&gt;menu_logic.php -->
<g id="edge3" class="edge">
<title>index.php&#45;&gt;menu_logic.php</title>
<path fill="none" stroke="black" d="M74.58,-425.99C89.85,-431.04 108.46,-437.14 125.2,-442.49 137.47,-446.42 150.7,-450.59 163.15,-454.47"/>
<polygon fill="black" stroke="black" points="161.8,-457.72 172.38,-457.35 163.88,-451.04 161.8,-457.72"/>
</g>
<!-- search_box.php -->
<g id="node5" class="node">
<title>search_box.php</title>
<ellipse fill="none" stroke="black" cx="216" cy="-305.49" rx="57.73" ry="18"/>
<text text-anchor="middle" x="216" y="-301.99" font-family="Times,serif" font-size="10.00">search_box.php</text>
</g>
<!-- index.php&#45;&gt;search_box.php -->
<g id="edge4" class="edge">
<title>index.php&#45;&gt;search_box.php</title>
<path fill="none" stroke="black" d="M55.98,-398.29C70.81,-379.78 96.73,-350.69 125.2,-333.49 134.84,-327.67 145.81,-322.95 156.69,-319.17"/>
<polygon fill="black" stroke="black" points="157.61,-322.55 166.05,-316.15 155.46,-315.89 157.61,-322.55"/>
</g>
<!-- ingredient_input_area.php -->
<g id="node6" class="node">
<title>ingredient_input_area.php</title>
<ellipse fill="none" stroke="black" cx="216" cy="-250.49" rx="90.8" ry="18"/>
<text text-anchor="middle" x="216" y="-246.99" font-family="Times,serif" font-size="10.00">ingredient_input_area.php</text>
</g>
<!-- index.php&#45;&gt;ingredient_input_area.php -->
<g id="edge5" class="edge">
<title>index.php&#45;&gt;ingredient_input_area.php</title>
<path fill="none" stroke="black" d="M48.98,-397.52C59.63,-368.26 84.64,-310.38 125.2,-278.49 130.3,-274.49 135.98,-271.05 141.93,-268.1"/>
<polygon fill="black" stroke="black" points="143.04,-271.43 150.78,-264.19 140.21,-265.03 143.04,-271.43"/>
</g>
<!-- macro_values_box.php -->
<g id="node7" class="node">
<title>macro_values_box.php</title>
<ellipse fill="none" stroke="black" cx="216" cy="-194.49" rx="78.78" ry="18"/>
<text text-anchor="middle" x="216" y="-190.99" font-family="Times,serif" font-size="10.00">macro_values_box.php</text>
</g>
<!-- index.php&#45;&gt;macro_values_box.php -->
<g id="edge6" class="edge">
<title>index.php&#45;&gt;macro_values_box.php</title>
<path fill="none" stroke="black" d="M45.67,-397.27C52.19,-359.38 72.42,-271.62 125.2,-223.49 130.81,-218.38 137.33,-214.16 144.26,-210.69"/>
<polygon fill="black" stroke="black" points="145.5,-213.97 153.24,-206.73 142.68,-207.56 145.5,-213.97"/>
</g>
<!-- saved_meals_list.php -->
<g id="node8" class="node">
<title>saved_meals_list.php</title>
<ellipse fill="none" stroke="black" cx="216" cy="-690.49" rx="73.96" ry="18"/>
<text text-anchor="middle" x="216" y="-686.99" font-family="Times,serif" font-size="10.00">saved_meals_list.php</text>
</g>
<!-- index.php&#45;&gt;saved_meals_list.php -->
<g id="edge7" class="edge">
<title>index.php&#45;&gt;saved_meals_list.php</title>
<path fill="none" stroke="black" d="M43.65,-433.94C46.27,-479.42 59.39,-597.93 125.2,-662.49 130.68,-667.87 137.18,-672.22 144.14,-675.74"/>
<polygon fill="black" stroke="black" points="142.64,-678.9 153.21,-679.7 145.45,-672.49 142.64,-678.9"/>
</g>
<!-- add_ingredient_form.php -->
<g id="node9" class="node">
<title>add_ingredient_form.php</title>
<ellipse fill="none" stroke="black" cx="216" cy="-635.49" rx="86.59" ry="18"/>
<text text-anchor="middle" x="216" y="-631.99" font-family="Times,serif" font-size="10.00">add_ingredient_form.php</text>
</g>
<!-- index.php&#45;&gt;add_ingredient_form.php -->
<g id="edge8" class="edge">
<title>index.php&#45;&gt;add_ingredient_form.php</title>
<path fill="none" stroke="black" d="M45.64,-433.76C52.08,-471.74 72.17,-559.63 125.2,-607.49 130.01,-611.84 135.5,-615.51 141.32,-618.61"/>
<polygon fill="black" stroke="black" points="139.48,-621.62 150.03,-622.67 142.44,-615.27 139.48,-621.62"/>
</g>
<!-- foot.php -->
<g id="node10" class="node">
<title>foot.php</title>
<ellipse fill="none" stroke="black" cx="216" cy="-525.49" rx="34.88" ry="18"/>
<text text-anchor="middle" x="216" y="-521.99" font-family="Times,serif" font-size="10.00">foot.php</text>
</g>
<!-- index.php&#45;&gt;foot.php -->
<g id="edge9" class="edge">
<title>index.php&#45;&gt;foot.php</title>
<path fill="none" stroke="black" d="M55.98,-432.7C70.81,-451.21 96.73,-480.3 125.2,-497.49 139.37,-506.05 156.41,-512.22 171.81,-516.56"/>
<polygon fill="black" stroke="black" points="170.65,-519.87 181.21,-519.01 172.42,-513.1 170.65,-519.87"/>
</g>
<!-- db.php -->
<g id="node12" class="node">
<title>db.php</title>
<ellipse fill="none" stroke="black" cx="580" cy="-360.49" rx="30.67" ry="18"/>
<text text-anchor="middle" x="580" y="-356.99" font-family="Times,serif" font-size="10.00">db.php</text>
</g>
<!-- head.php&#45;&gt;db.php -->
<g id="edge24" class="edge">
<title>head.php&#45;&gt;db.php</title>
<path fill="none" stroke="black" d="M253.44,-412.58C271.85,-409.23 293.11,-402.19 306.8,-387.49 366.56,-323.35 283.3,-249.92 352.03,-195.49 405.67,-153.02 448.63,-158.17 505.97,-195.49 552.15,-225.55 569.35,-292.2 575.59,-330.96"/>
<polygon fill="black" stroke="black" points="572.11,-331.36 577.01,-340.76 579.04,-330.36 572.11,-331.36"/>
</g>
<!-- functions.php -->
<g id="node23" class="node">
<title>functions.php</title>
<ellipse fill="none" stroke="black" cx="429" cy="-277.49" rx="51.72" ry="18"/>
<text text-anchor="middle" x="429" y="-273.99" font-family="Times,serif" font-size="10.00">functions.php</text>
</g>
<!-- head.php&#45;&gt;functions.php -->
<g id="edge25" class="edge">
<title>head.php&#45;&gt;functions.php</title>
<path fill="none" stroke="black" d="M252.81,-410.77C270.59,-406.93 291.49,-399.99 306.8,-387.49 339.05,-361.18 320.46,-332.62 352.03,-305.49 358.7,-299.76 366.65,-295.16 374.85,-291.47"/>
<polygon fill="black" stroke="black" points="375.92,-294.82 383.9,-287.85 373.31,-288.32 375.92,-294.82"/>
</g>
<!-- hjem.php -->
<g id="node13" class="node">
<title>hjem.php</title>
<ellipse fill="none" stroke="black" cx="429" cy="-718.49" rx="37.88" ry="18"/>
<text text-anchor="middle" x="429" y="-714.99" font-family="Times,serif" font-size="10.00">hjem.php</text>
</g>
<!-- menu_logic.php&#45;&gt;hjem.php -->
<g id="edge11" class="edge">
<title>menu_logic.php&#45;&gt;hjem.php</title>
<path fill="none" stroke="black" d="M273.81,-469.87C286.09,-473.77 298.01,-480.05 306.8,-489.49 366.56,-553.64 293.92,-615.85 352.03,-681.49 361.42,-692.1 375.19,-698.7 388.44,-703.35"/>
<polygon fill="black" stroke="black" points="387.3,-706.66 397.89,-706.37 389.44,-699.99 387.3,-706.66"/>
</g>
<!-- menu_logic.php&#45;&gt;hjem.php -->
<g id="edge15" class="edge">
<title>menu_logic.php&#45;&gt;hjem.php</title>
<path fill="none" stroke="black" d="M258.9,-482.77C275.92,-487.2 294.45,-494.23 306.8,-507.49 366.56,-571.64 293.92,-633.85 352.03,-699.49 359.5,-707.93 369.74,-713.83 380.28,-717.68"/>
<polygon fill="black" stroke="black" points="379.24,-721.02 389.82,-720.53 381.24,-714.31 379.24,-721.02"/>
</g>
<!-- side1.php -->
<g id="node14" class="node">
<title>side1.php</title>
<ellipse fill="none" stroke="black" cx="429" cy="-498.49" rx="39.09" ry="18"/>
<text text-anchor="middle" x="429" y="-494.99" font-family="Times,serif" font-size="10.00">side1.php</text>
</g>
<!-- menu_logic.php&#45;&gt;side1.php -->
<g id="edge12" class="edge">
<title>menu_logic.php&#45;&gt;side1.php</title>
<path fill="none" stroke="black" d="M269.7,-477.49C303.44,-481.97 346.89,-487.73 379.73,-492.09"/>
<polygon fill="black" stroke="black" points="378.99,-495.52 389.37,-493.37 379.91,-488.58 378.99,-495.52"/>
</g>
<!-- side2.php -->
<g id="node15" class="node">
<title>side2.php</title>
<ellipse fill="none" stroke="black" cx="429" cy="-387.49" rx="39.09" ry="18"/>
<text text-anchor="middle" x="429" y="-383.99" font-family="Times,serif" font-size="10.00">side2.php</text>
</g>
<!-- menu_logic.php&#45;&gt;side2.php -->
<g id="edge13" class="edge">
<title>menu_logic.php&#45;&gt;side2.php</title>
<path fill="none" stroke="black" d="M261.16,-458.99C275.94,-454.54 292.34,-448.96 306.8,-442.49 328.18,-432.94 330.91,-425.59 352.03,-415.49 362.68,-410.41 374.53,-405.64 385.63,-401.54"/>
<polygon fill="black" stroke="black" points="386.76,-404.85 394.99,-398.18 384.39,-398.26 386.76,-404.85"/>
</g>
<!-- side3.php -->
<g id="node16" class="node">
<title>side3.php</title>
<ellipse fill="none" stroke="black" cx="429" cy="-553.49" rx="39.09" ry="18"/>
<text text-anchor="middle" x="429" y="-549.99" font-family="Times,serif" font-size="10.00">side3.php</text>
</g>
<!-- menu_logic.php&#45;&gt;side3.php -->
<g id="edge14" class="edge">
<title>menu_logic.php&#45;&gt;side3.php</title>
<path fill="none" stroke="black" d="M261.16,-482C275.94,-486.45 292.34,-492.03 306.8,-498.49 328.18,-508.05 330.91,-515.4 352.03,-525.49 362.68,-530.58 374.53,-535.35 385.63,-539.45"/>
<polygon fill="black" stroke="black" points="384.39,-542.73 394.99,-542.81 386.76,-536.14 384.39,-542.73"/>
</g>
<!-- add_ingredient.php -->
<g id="node11" class="node">
<title>add_ingredient.php</title>
<ellipse fill="none" stroke="black" cx="429" cy="-128.49" rx="69.15" ry="18"/>
<text text-anchor="middle" x="429" y="-124.99" font-family="Times,serif" font-size="10.00">add_ingredient.php</text>
</g>
<!-- add_ingredient.php&#45;&gt;db.php -->
<g id="edge10" class="edge">
<title>add_ingredient.php&#45;&gt;db.php</title>
<path fill="none" stroke="black" d="M476.76,-141.8C487.44,-146.61 497.98,-153.02 505.97,-161.49 551.47,-209.71 569.1,-288.61 575.55,-331.13"/>
<polygon fill="black" stroke="black" points="572.06,-331.43 576.91,-340.85 578.99,-330.46 572.06,-331.43"/>
</g>
<!-- side1.php&#45;&gt;db.php -->
<g id="edge18" class="edge">
<title>side1.php&#45;&gt;db.php</title>
<path fill="none" stroke="black" d="M464.09,-490.4C478.09,-485.88 493.82,-479.17 505.97,-469.49 533.44,-447.61 554.31,-412.55 566.57,-388.12"/>
<polygon fill="black" stroke="black" points="569.58,-389.94 570.78,-379.42 563.28,-386.89 569.58,-389.94"/>
</g>
<!-- side2.php&#45;&gt;db.php -->
<g id="edge19" class="edge">
<title>side2.php&#45;&gt;db.php</title>
<path fill="none" stroke="black" d="M465.69,-381.03C487.93,-377 516.58,-371.81 539.5,-367.65"/>
<polygon fill="black" stroke="black" points="539.87,-371.14 549.08,-365.92 538.62,-364.26 539.87,-371.14"/>
</g>
<!-- save_meal.php -->
<g id="node17" class="node">
<title>save_meal.php</title>
<ellipse fill="none" stroke="black" cx="429" cy="-73.49" rx="54.72" ry="18"/>
<text text-anchor="middle" x="429" y="-69.99" font-family="Times,serif" font-size="10.00">save_meal.php</text>
</g>
<!-- save_meal.php&#45;&gt;db.php -->
<g id="edge16" class="edge">
<title>save_meal.php&#45;&gt;db.php</title>
<path fill="none" stroke="black" d="M476.34,-82.84C487.28,-86.97 498.05,-92.93 505.97,-101.49 566.29,-166.73 577.29,-277.99 578.96,-330.88"/>
<polygon fill="black" stroke="black" points="575.46,-330.69 579.17,-340.61 582.46,-330.54 575.46,-330.69"/>
</g>
<!-- delete_meal.php -->
<g id="node18" class="node">
<title>delete_meal.php</title>
<ellipse fill="none" stroke="black" cx="429" cy="-18.49" rx="60.13" ry="18"/>
<text text-anchor="middle" x="429" y="-14.99" font-family="Times,serif" font-size="10.00">delete_meal.php</text>
</g>
<!-- delete_meal.php&#45;&gt;db.php -->
<g id="edge17" class="edge">
<title>delete_meal.php&#45;&gt;db.php</title>
<path fill="none" stroke="black" d="M479.38,-28.68C489.33,-32.76 498.9,-38.49 505.97,-46.49 543.53,-89.05 567.41,-261.27 575.72,-330.99"/>
<polygon fill="black" stroke="black" points="572.24,-331.35 576.87,-340.88 579.19,-330.54 572.24,-331.35"/>
</g>
<!-- delete_ingredient.php -->
<g id="node19" class="node">
<title>delete_ingredient.php</title>
<ellipse fill="none" stroke="black" cx="429" cy="-773.49" rx="76.97" ry="18"/>
<text text-anchor="middle" x="429" y="-769.99" font-family="Times,serif" font-size="10.00">delete_ingredient.php</text>
</g>
<!-- delete_ingredient.php&#45;&gt;db.php -->
<g id="edge20" class="edge">
<title>delete_ingredient.php&#45;&gt;db.php</title>
<path fill="none" stroke="black" d="M485.44,-760.9C493.22,-757.05 500.43,-752.04 505.97,-745.49 551.76,-691.42 571.38,-470.44 577.11,-389.97"/>
<polygon fill="black" stroke="black" points="580.58,-390.46 577.78,-380.24 573.6,-389.98 580.58,-390.46"/>
</g>
<!-- search_meals.php -->
<g id="node20" class="node">
<title>search_meals.php</title>
<ellipse fill="none" stroke="black" cx="429" cy="-663.49" rx="64.34" ry="18"/>
<text text-anchor="middle" x="429" y="-659.99" font-family="Times,serif" font-size="10.00">search_meals.php</text>
</g>
<!-- search_meals.php&#45;&gt;db.php -->
<g id="edge21" class="edge">
<title>search_meals.php&#45;&gt;db.php</title>
<path fill="none" stroke="black" d="M480.76,-652.49C490.17,-648.47 499.16,-642.98 505.97,-635.49 569.82,-565.37 578.98,-445.77 579.56,-390.33"/>
<polygon fill="black" stroke="black" points="583.06,-390.42 579.57,-380.42 576.06,-390.42 583.06,-390.42"/>
</g>
<!-- get_meals.php -->
<g id="node21" class="node">
<title>get_meals.php</title>
<ellipse fill="none" stroke="black" cx="429" cy="-608.49" rx="54.12" ry="18"/>
<text text-anchor="middle" x="429" y="-604.99" font-family="Times,serif" font-size="10.00">get_meals.php</text>
</g>
<!-- get_meals.php&#45;&gt;db.php -->
<g id="edge22" class="edge">
<title>get_meals.php&#45;&gt;db.php</title>
<path fill="none" stroke="black" d="M475.68,-599.05C486.76,-594.91 497.76,-588.98 505.97,-580.49 557.49,-527.27 572.68,-436.86 577.14,-390.25"/>
<polygon fill="black" stroke="black" points="580.62,-390.62 577.98,-380.37 573.65,-390.04 580.62,-390.62"/>
</g>
<!-- get_ingredients.php -->
<g id="node22" class="node">
<title>get_ingredients.php</title>
<ellipse fill="none" stroke="black" cx="429" cy="-442.49" rx="70.96" ry="18"/>
<text text-anchor="middle" x="429" y="-438.99" font-family="Times,serif" font-size="10.00">get_ingredients.php</text>
</g>
<!-- get_ingredients.php&#45;&gt;db.php -->
<g id="edge23" class="edge">
<title>get_ingredients.php&#45;&gt;db.php</title>
<path fill="none" stroke="black" d="M474.72,-428.41C485.22,-424.45 496.2,-419.77 505.97,-414.49 522.66,-405.49 539.78,-393.03 553.25,-382.35"/>
<polygon fill="black" stroke="black" points="555.2,-385.27 560.76,-376.25 550.79,-379.83 555.2,-385.27"/>
</g>
<!-- switch_page.php -->
<g id="node24" class="node">
<title>switch_page.php</title>
<ellipse fill="none" stroke="black" cx="216" cy="-580.49" rx="60.74" ry="18"/>
<text text-anchor="middle" x="216" y="-576.99" font-family="Times,serif" font-size="10.00">switch_page.php</text>
</g>
<!-- switch_page.php&#45;&gt;hjem.php -->
<g id="edge26" class="edge">
<title>switch_page.php&#45;&gt;hjem.php</title>
<path fill="none" stroke="black" d="M276.31,-583.1C287.22,-586.9 297.95,-592.27 306.8,-599.49 339.05,-625.81 320.46,-654.37 352.03,-681.49 362.94,-690.87 377.27,-697.23 390.54,-702.05"/>
<polygon fill="black" stroke="black" points="389.31,-705.33 399.91,-705.28 391.6,-698.71 389.31,-705.33"/>
</g>
<!-- switch_page.php&#45;&gt;hjem.php -->
<g id="edge30" class="edge">
<title>switch_page.php&#45;&gt;hjem.php</title>
<path fill="none" stroke="black" d="M256.37,-594.25C273.33,-599 292.51,-605.83 306.8,-617.49 339.05,-643.81 320.46,-672.37 352.03,-699.49 360.09,-706.43 370.02,-711.7 380.01,-715.47"/>
<polygon fill="black" stroke="black" points="378.76,-718.74 389.35,-718.5 380.92,-712.09 378.76,-718.74"/>
</g>
<!-- switch_page.php&#45;&gt;side1.php -->
<g id="edge27" class="edge">
<title>switch_page.php&#45;&gt;side1.php</title>
<path fill="none" stroke="black" d="M262.01,-568.57C276.55,-564.16 292.59,-558.71 306.8,-552.49 328.05,-543.21 331.03,-536.32 352.03,-526.49 362.72,-521.49 374.58,-516.76 385.68,-512.66"/>
<polygon fill="black" stroke="black" points="386.82,-515.97 395.04,-509.29 384.45,-509.38 386.82,-515.97"/>
</g>
<!-- switch_page.php&#45;&gt;side2.php -->
<g id="edge28" class="edge">
<title>switch_page.php&#45;&gt;side2.php</title>
<path fill="none" stroke="black" d="M270.9,-572.59C283.99,-568.44 297.02,-562.11 306.8,-552.49 352.52,-507.53 307.47,-461.61 352.03,-415.49 360.01,-407.23 370.65,-401.39 381.42,-397.27"/>
<polygon fill="black" stroke="black" points="382.33,-400.65 390.71,-394.17 380.12,-394.01 382.33,-400.65"/>
</g>
<!-- switch_page.php&#45;&gt;side3.php -->
<g id="edge29" class="edge">
<title>switch_page.php&#45;&gt;side3.php</title>
<path fill="none" stroke="black" d="M272.44,-573.4C305.71,-569.14 347.64,-563.78 379.58,-559.69"/>
<polygon fill="black" stroke="black" points="379.89,-563.18 389.36,-558.44 379,-556.24 379.89,-563.18"/>
</g>
<!-- calculate.php -->
<g id="node25" class="node">
<title>calculate.php</title>
<ellipse fill="none" stroke="black" cx="429" cy="-332.49" rx="50.51" ry="18"/>
<text text-anchor="middle" x="429" y="-328.99" font-family="Times,serif" font-size="10.00">calculate.php</text>
</g>
<!-- calculate.php&#45;&gt;db.php -->
<g id="edge31" class="edge">
<title>calculate.php&#45;&gt;db.php</title>
<path fill="none" stroke="black" d="M474.3,-340.82C494.95,-344.7 519.33,-349.28 539.37,-353.05"/>
<polygon fill="black" stroke="black" points="538.64,-356.47 549.11,-354.88 539.93,-349.59 538.64,-356.47"/>
</g>
<!-- search.php -->
<g id="node26" class="node">
<title>search.php</title>
<ellipse fill="none" stroke="black" cx="429" cy="-222.49" rx="43.3" ry="18"/>
<text text-anchor="middle" x="429" y="-218.99" font-family="Times,serif" font-size="10.00">search.php</text>
</g>
<!-- search.php&#45;&gt;db.php -->
<g id="edge32" class="edge">
<title>search.php&#45;&gt;db.php</title>
<path fill="none" stroke="black" d="M467.58,-231.18C480.66,-235.48 494.83,-241.69 505.97,-250.49 533.7,-272.41 554.52,-307.83 566.69,-332.54"/>
<polygon fill="black" stroke="black" points="563.43,-333.82 570.87,-341.35 569.75,-330.82 563.43,-333.82"/>
</g>
</g>
</svg>
